# xmcd
# 
# Track frame offsets:
#     150
#     14035
#     26620
#     38837
#     74425
#     107705
#     132846
#     146771
#     159335
#     175817
#     192259
#     211905
#     225646
#     245707
#     261733
#     312585
#     330141
# 
# Disc length: 4699
# 
# Revision: 0
# Processed by: cddbd v1.5.2PL0 Copyright (c) Steve Scherf et al.
# Submitted via: fre:ac v1.0.17
# 
DISCID=f9125911
DTITLE=Platters - Platters morning show live
DYEAR=0
DGENRE=Blues
TTITLE0=Only you
TTITLE1=Twilight time
TTITLE2=Remember me
TTITLE3=Stand by me
TTITLE4=I'm Sorry/You'll never know/he's mine/red sails in the sunset
TTITLE5=Coasters medley
TTITLE6=Kansas city
TTITLE7=with this ring
TTITLE8=Smoke gets in your eys
TTITLE9=Love train
TTITLE10=Neither one of us
TTITLE11=Harbor lights
TTITLE12=Magic touch
TTITLE13=my prayer
TTITLE14=Motown medley
TTITLE15=It's alright
TTITLE16=Soap opera/Great pretender
EXTD=Recorded at the starlight theater Branson Missouri
EXTT0=
EXTT1=
EXTT2=
EXTT3=
EXTT4=
EXTT5=
EXTT6=
EXTT7=
EXTT8=
EXTT9=
EXTT10=
EXTT11=
EXTT12=
EXTT13=
EXTT14=
EXTT15=
EXTT16=
PLAYORDER=
